<svg xmlns="http://www.w3.org/2000/svg" xmlns:xlink="http://www.w3.org/1999/xlink" width="54" height="58" version="1.1" viewBox="0 0 54 58"><title>Ballot_0%</title><desc>Created with Sketch.</desc><defs><linearGradient id="linearGradient-1" x1="50%" x2="50%" y1="-3.038%" y2="100%"><stop offset="0%" stop-color="#A5BFFF"/><stop offset="100%" stop-color="#CEDCFF"/></linearGradient><path id="path-2" d="M35.2173913,3.01226227 L50.7633708,11.9877377 C53.9919038,13.8517321 55.9807621,17.2965358 55.9807621,21.0245245 L55.9807621,38.9754755 C55.9807621,42.7034642 53.9919038,46.1482679 50.7633708,48.0122623 L35.2173913,56.9877377 C31.9888583,58.8517321 28.0111417,58.8517321 24.7826087,56.9877377 L9.23662919,48.0122623 C6.00809622,46.1482679 4.01923789,42.7034642 4.01923789,38.9754755 L4.01923789,21.0245245 C4.01923789,17.2965358 6.00809622,13.8517321 9.23662919,11.9877377 L24.7826087,3.01226227 C28.0111417,1.14826789 31.9888583,1.14826789 35.2173913,3.01226227 Z"/><linearGradient id="linearGradient-4" x1="50%" x2="50%" y1="0%" y2="100%"><stop offset="0%" stop-color="#FFF"/><stop offset="100%" stop-color="#E7EEFF"/></linearGradient><linearGradient id="linearGradient-5" x1="87.664%" x2="50%" y1="626.181%" y2="100%"><stop offset="0%" stop-color="#A5BFFF"/><stop offset="100%" stop-color="#CEDCFF"/></linearGradient><linearGradient id="linearGradient-6" x1="87.664%" x2="50%" y1="142.189%" y2="58%"><stop offset="0%" stop-color="#A5BFFF"/><stop offset="100%" stop-color="#CEDCFF"/></linearGradient><linearGradient id="linearGradient-7" x1="50%" x2="50%" y1="0%" y2="100%"><stop offset="0%" stop-color="#FFF"/><stop offset="100%" stop-color="#E7EEFF"/></linearGradient><path id="path-8" d="M35.2173913,3.01226227 L50.7633708,11.9877377 C53.9919038,13.8517321 55.9807621,17.2965358 55.9807621,21.0245245 L55.9807621,38.9754755 C55.9807621,42.7034642 53.9919038,46.1482679 50.7633708,48.0122623 L35.2173913,56.9877377 C31.9888583,58.8517321 28.0111417,58.8517321 24.7826087,56.9877377 L9.23662919,48.0122623 C6.00809622,46.1482679 4.01923789,42.7034642 4.01923789,38.9754755 L4.01923789,21.0245245 C4.01923789,17.2965358 6.00809622,13.8517321 9.23662919,11.9877377 L24.7826087,3.01226227 C28.0111417,1.14826789 31.9888583,1.14826789 35.2173913,3.01226227 Z"/></defs><g id="Ballot_0%" fill="none" fill-rule="evenodd" stroke="none" stroke-width="1"><g id="Group-16" transform="translate(-3.000000, -1.000000)"><g id="Group-3"><mask id="mask-3" fill="#fff"><use xlink:href="#path-2"/></mask><use id="Polygon" fill="url(#linearGradient-1)" transform="translate(30.000000, 30.000000) rotate(-360.000000) translate(-30.000000, -30.000000)" xlink:href="#path-2"/><g id="Group-15" mask="url(#mask-3)"><g transform="translate(9.130435, 14.347826)"><rect id="Combined-Shape" width="28.696" height="32.609" x="6.522" y="0" fill="url(#linearGradient-4)" rx="5.217"/><rect id="Rectangle" width="7.826" height="7.826" x="11.739" y="5.217" fill="url(#linearGradient-5)" rx="1.304"/><rect id="Rectangle" width="6.522" height="2.609" x="23.478" y="7.826" fill="url(#linearGradient-6)" rx="1.304"/><rect id="Rectangle" width="6.522" height="2.609" x="23.478" y="20.87" fill="url(#linearGradient-6)" rx="1.304"/><rect id="Rectangle" width="7.826" height="7.826" x="11.739" y="18.261" fill="url(#linearGradient-5)" rx="1.304"/><rect id="Combined-Shape" width="41.739" height="41.739" x="0" y="22.174" fill="url(#linearGradient-7)" rx="5.217"/></g></g><mask id="mask-9" fill="#fff"><use xlink:href="#path-8"/></mask><path stroke="url(#linearGradient-1)" stroke-width="3" d="M34.4673913,4.31130038 C31.7029599,2.71525519 28.2970401,2.71525519 25.5326087,4.31130038 L9.98662919,13.2867758 C7.22219783,14.882821 5.51923789,17.8324342 5.51923789,21.0245245 L5.51923789,38.9754755 C5.51923789,42.1675658 7.22219783,45.117179 9.98662919,46.7132242 L25.5326087,55.6886996 C28.2970401,57.2847448 31.7029599,57.2847448 34.4673913,55.6886996 L50.0133708,46.7132242 C52.7778022,45.117179 54.4807621,42.1675658 54.4807621,38.9754755 L54.4807621,21.0245245 C54.4807621,17.8324342 52.7778022,14.882821 50.0133708,13.2867758 L34.4673913,4.31130038 Z"/></g></g></g></svg>