<svg xmlns="http://www.w3.org/2000/svg" xmlns:xlink="http://www.w3.org/1999/xlink" width="54" height="58" version="1.1" viewBox="0 0 54 58"><title>Ballot_50%</title><desc>Created with Sketch.</desc><defs><linearGradient id="linearGradient-1" x1="50%" x2="50%" y1="-3.038%" y2="100%"><stop offset="0%" stop-color="#A5BFFF"/><stop offset="100%" stop-color="#CEDCFF"/></linearGradient><path id="path-2" d="M35.2173913,3.01226227 L50.7633708,11.9877377 C53.9919038,13.8517321 55.9807621,17.2965358 55.9807621,21.0245245 L55.9807621,38.9754755 C55.9807621,42.7034642 53.9919038,46.1482679 50.7633708,48.0122623 L35.2173913,56.9877377 C31.9888583,58.8517321 28.0111417,58.8517321 24.7826087,56.9877377 L9.23662919,48.0122623 C6.00809622,46.1482679 4.01923789,42.7034642 4.01923789,38.9754755 L4.01923789,21.0245245 C4.01923789,17.2965358 6.00809622,13.8517321 9.23662919,11.9877377 L24.7826087,3.01226227 C28.0111417,1.14826789 31.9888583,1.14826789 35.2173913,3.01226227 Z"/><linearGradient id="linearGradient-4" x1="42.73%" x2="42.73%" y1="0%" y2="100%"><stop offset="0%" stop-color="#1FC070"/><stop offset="100%" stop-color="#7AFFB3"/></linearGradient><linearGradient id="linearGradient-5" x1="50%" x2="50%" y1="0%" y2="100%"><stop offset="0%" stop-color="#FFF"/><stop offset="100%" stop-color="#E7EEFF"/></linearGradient><linearGradient id="linearGradient-6" x1="87.664%" x2="50%" y1="626.181%" y2="100%"><stop offset="0%" stop-color="#A5BFFF"/><stop offset="100%" stop-color="#CEDCFF"/></linearGradient><linearGradient id="linearGradient-7" x1="87.664%" x2="50%" y1="142.189%" y2="58%"><stop offset="0%" stop-color="#A5BFFF"/><stop offset="100%" stop-color="#CEDCFF"/></linearGradient><linearGradient id="linearGradient-8" x1="42.73%" x2="42.73%" y1="0%" y2="100%"><stop offset="0%" stop-color="#415A99"/><stop offset="100%" stop-color="#2D3B5E"/></linearGradient><rect id="path-9" width="41.739" height="41.739" x="0" y="22.174" rx="5.217"/><filter id="filter-10" width="140.7%" height="143.1%" x="-20.4%" y="-10.8%" filterUnits="objectBoundingBox"><feMorphology in="SourceAlpha" operator="erode" radius="1.5" result="shadowSpreadOuter1"/><feOffset dx="0" dy="5" in="shadowSpreadOuter1" result="shadowOffsetOuter1"/><feGaussianBlur in="shadowOffsetOuter1" result="shadowBlurOuter1" stdDeviation="3.5"/><feComposite in="shadowBlurOuter1" in2="SourceAlpha" operator="out" result="shadowBlurOuter1"/><feColorMatrix in="shadowBlurOuter1" type="matrix" values="0 0 0 0 0.607733243 0 0 0 0 0.326100764 0 0 0 0 0 0 0 0 1 0"/></filter><filter id="filter-11" width="162.3%" height="164.7%" x="-31.1%" y="-21.6%" filterUnits="objectBoundingBox"><feGaussianBlur in="SourceAlpha" result="shadowBlurInner1" stdDeviation="8.5"/><feOffset dx="0" dy="1" in="shadowBlurInner1" result="shadowOffsetInner1"/><feComposite in="shadowOffsetInner1" in2="SourceAlpha" k2="-1" k3="1" operator="arithmetic" result="shadowInnerInner1"/><feColorMatrix in="shadowInnerInner1" type="matrix" values="0 0 0 0 0 0 0 0 0 0 0 0 0 0 0 0 0 0 0 0"/></filter></defs><g id="Ballot_50%" fill="none" fill-rule="evenodd" stroke="none" stroke-width="1"><g id="Group-16" transform="translate(-3.000000, -1.000000)"><g id="Group-3"><mask id="mask-3" fill="#fff"><use xlink:href="#path-2"/></mask><use id="Polygon" fill="url(#linearGradient-1)" transform="translate(30.000000, 30.000000) rotate(-360.000000) translate(-30.000000, -30.000000)" xlink:href="#path-2"/><path id="Path-3" fill="url(#linearGradient-4)" d="M1.63437284,28.8745571 C9.71838665,23.3510451 17.9887338,22.8566275 26.4454142,27.3913043 C32.7378078,30.7654383 37.690034,27.2871333 48.4965455,25.6490135 C52.3069358,25.0714103 55.3241786,25.6521739 57.5482738,27.3913043 L57.5482738,56.3280547 L7.19438444,61.9928404 L-2.90798685,46.3043478 L1.63437284,28.8745571 Z" mask="url(#mask-3)"/><g id="Group-15" mask="url(#mask-3)"><g transform="translate(9.130435, 14.347826)"><rect id="Combined-Shape" width="28.696" height="32.609" x="6.522" y="0" fill="url(#linearGradient-5)" fill-rule="evenodd" rx="5.217"/><rect id="Rectangle" width="7.826" height="7.826" x="11.739" y="5.217" fill="url(#linearGradient-6)" fill-rule="evenodd" rx="1.304"/><rect id="Rectangle" width="6.522" height="2.609" x="23.478" y="7.826" fill="url(#linearGradient-7)" fill-rule="evenodd" rx="1.304"/><rect id="Rectangle" width="6.522" height="2.609" x="23.478" y="20.87" fill="url(#linearGradient-7)" fill-rule="evenodd" rx="1.304"/><rect id="Rectangle" width="7.826" height="7.826" x="11.739" y="18.261" fill="url(#linearGradient-6)" fill-rule="evenodd" rx="1.304"/><g id="Combined-Shape" fill="none"><use fill="#000" fill-opacity="1" filter="url(#filter-10)" xlink:href="#path-9"/><use fill="url(#linearGradient-8)" fill-rule="evenodd" xlink:href="#path-9"/><use fill="#000" fill-opacity="1" filter="url(#filter-11)" xlink:href="#path-9"/><rect width="40.435" height="40.435" x=".652" y="22.826" stroke="#21293D" stroke-linejoin="square" stroke-opacity=".282" stroke-width="1.304" rx="5.217"/></g></g></g></g></g></g></svg>