<svg xmlns="http://www.w3.org/2000/svg" xmlns:xlink="http://www.w3.org/1999/xlink" width="54" height="58" version="1.1" viewBox="0 0 54 58"><title>Register_50%</title><desc>Created with Sketch.</desc><defs><linearGradient id="linearGradient-1" x1="50%" x2="50%" y1="-3.038%" y2="100%"><stop offset="0%" stop-color="#A5BFFF"/><stop offset="100%" stop-color="#CEDCFF"/></linearGradient><path id="path-2" d="M35.2173913,3.01226227 L50.7633708,11.9877377 C53.9919038,13.8517321 55.9807621,17.2965358 55.9807621,21.0245245 L55.9807621,38.9754755 C55.9807621,42.7034642 53.9919038,46.1482679 50.7633708,48.0122623 L35.2173913,56.9877377 C31.9888583,58.8517321 28.0111417,58.8517321 24.7826087,56.9877377 L9.23662919,48.0122623 C6.00809622,46.1482679 4.01923789,42.7034642 4.01923789,38.9754755 L4.01923789,21.0245245 C4.01923789,17.2965358 6.00809622,13.8517321 9.23662919,11.9877377 L24.7826087,3.01226227 C28.0111417,1.14826789 31.9888583,1.14826789 35.2173913,3.01226227 Z"/><linearGradient id="linearGradient-4" x1="42.73%" x2="42.73%" y1="0%" y2="100%"><stop offset="0%" stop-color="#1FC070"/><stop offset="100%" stop-color="#7AFFB3"/></linearGradient><linearGradient id="linearGradient-5" x1="50%" x2="50%" y1="0%" y2="100%"><stop offset="0%" stop-color="#FFF"/><stop offset="100%" stop-color="#E7EEFF"/></linearGradient><linearGradient id="linearGradient-6" x1="42.73%" x2="42.73%" y1="0%" y2="100%"><stop offset="0%" stop-color="#415A99"/><stop offset="100%" stop-color="#2D3B5E"/></linearGradient><path id="path-7" d="M20.7550335,18.0666497 C25.8084018,16.6578092 28.9040401,16.4994438 31.3050209,16.8598532 L31.3043478,26.0869565 C31.3043478,28.9684422 28.9684422,31.3043478 26.0869565,31.3043478 L5.2173913,31.3043478 C2.33590565,31.3043478 3.52880218e-16,28.9684422 0,26.0869565 L-0.00033099585,16.8142077 C6.18496787,19.0596985 13.0840087,20.2052727 20.7550335,18.0666497 Z"/><filter id="filter-8" width="160.7%" height="213.7%" x="-30.3%" y="-53.3%" filterUnits="objectBoundingBox"><feGaussianBlur in="SourceAlpha" result="shadowBlurInner1" stdDeviation="8.5"/><feOffset dx="0" dy="2" in="shadowBlurInner1" result="shadowOffsetInner1"/><feComposite in="shadowOffsetInner1" in2="SourceAlpha" k2="-1" k3="1" operator="arithmetic" result="shadowInnerInner1"/><feColorMatrix in="shadowInnerInner1" type="matrix" values="0 0 0 0 0 0 0 0 0 0 0 0 0 0 0 0 0 0 0 0"/></filter><linearGradient id="linearGradient-9" x1="87.664%" x2="50%" y1="80.684%" y2="52.663%"><stop offset="0%" stop-color="#A5BFFF"/><stop offset="100%" stop-color="#CEDCFF"/></linearGradient><linearGradient id="linearGradient-10" x1="87.664%" x2="50%" y1="70.256%" y2="51.758%"><stop offset="0%" stop-color="#A5BFFF"/><stop offset="100%" stop-color="#CEDCFF"/></linearGradient><linearGradient id="linearGradient-11" x1="50%" x2="50%" y1="-3.038%" y2="100%"><stop offset="0%" stop-color="#CEDCFF"/><stop offset="100%" stop-color="#95AEEB"/></linearGradient><path id="path-12" d="M0.427857423,6.55105656 L4.02000799,0.405846951 C4.23812978,0.0326988686 4.71744871,-0.0929747753 5.09059679,0.125147011 C5.20673311,0.193033895 5.30340985,0.289710635 5.37129673,0.405846951 L8.9634473,6.55105656 C9.24363842,7.03038869 9.39130472,7.57561689 9.39130472,8.13083428 L9.39130472,21.1630443 C9.39130472,22.8919358 7.98976127,24.2934793 6.26086981,24.2934793 L3.13043491,24.2934793 C1.40154345,24.2934793 0,22.8919358 0,21.1630443 L0,8.13083428 C0,7.57561689 0.147666302,7.03038869 0.427857423,6.55105656 Z"/><linearGradient id="linearGradient-14" x1="50%" x2="50%" y1="0%" y2="100%"><stop offset="0%" stop-color="#FFF"/><stop offset="100%" stop-color="#E7EEFF"/></linearGradient><linearGradient id="linearGradient-15" x1="50%" x2="50%" y1="0%" y2="100%"><stop offset="0%" stop-color="#FFF"/><stop offset="100%" stop-color="#D0DDFD"/></linearGradient></defs><g id="Register_50%" fill="none" fill-rule="evenodd" stroke="none" stroke-width="1"><g id="Group-16" transform="translate(-3.000000, -1.000000)"><g id="Group-3"><mask id="mask-3" fill="#fff"><use xlink:href="#path-2"/></mask><use id="Polygon" fill="url(#linearGradient-1)" transform="translate(30.000000, 30.000000) rotate(-360.000000) translate(-30.000000, -30.000000)" xlink:href="#path-2"/><path id="Path-3" fill="url(#linearGradient-4)" d="M-3.81468345,30.193927 C5.41359732,23.888579 14.8545863,23.3241781 24.5082835,28.5007244 C31.6913459,32.3524564 37.3445442,28.3818082 49.6806837,26.5118177 C54.0304229,25.8524565 57.474747,26.5154254 60.013656,28.5007244 L60.013656,61.5333816 L2.53233047,68 L-9,50.0908502 L-3.81468345,30.193927 Z" mask="url(#mask-3)"/></g><g id="Group-15" transform="translate(14.347826, 14.347826)"><rect id="Rectangle" width="31.304" height="31.304" x="0" y="0" fill="url(#linearGradient-5)" rx="5.217"/><g id="Combined-Shape"><use fill="url(#linearGradient-6)" fill-rule="evenodd" xlink:href="#path-7"/><use fill="#000" fill-opacity="1" filter="url(#filter-8)" xlink:href="#path-7"/><path stroke="#21293D" stroke-linejoin="square" stroke-opacity=".282" stroke-width="1.304" d="M0.651875811,17.7357078 L0.652173913,26.0869565 C0.652173913,28.6082565 2.69609136,30.6521739 5.2173913,30.6521739 L26.0869565,30.6521739 C28.6082565,30.6521739 30.6521739,28.6082565 30.6521739,26.0869089 L30.6528052,17.4330938 C28.1598827,17.1626253 25.1593758,17.5157976 20.9301755,18.6948663 C14.1481285,20.5856491 7.6169774,20.1186608 0.651875811,17.7357078 Z"/></g><rect id="Rectangle" width="16.957" height="3.913" x="5.217" y="5.217" fill="url(#linearGradient-9)" rx="1.957"/><rect id="Rectangle" width="20.87" height="3.913" x="5.217" y="13.696" fill="url(#linearGradient-10)" rx="1.957"/><rect id="Rectangle" width="20.87" height="3.913" x="5.217" y="22.174" fill="url(#linearGradient-10)" rx="1.957"/></g><g id="Rectangle" transform="translate(45.374369, 14.374369) rotate(-135.000000) translate(-45.374369, -14.374369) translate(40.374369, 1.874369)"><mask id="mask-13" fill="#fff"><use xlink:href="#path-12"/></mask><use id="Mask" fill="url(#linearGradient-11)" xlink:href="#path-12"/><rect width="3.13" height="14.087" x="3.13" y="8.373" fill="url(#linearGradient-14)" mask="url(#mask-13)" rx="1.565"/><path id="Oval" fill="url(#linearGradient-15)" d="M4.69565236,2.38043491 C10.2193624,2.38043491 6.26086981,1.67966318 6.26086981,0.815217454 C6.26086981,-0.0492282762 5.56009809,-0.75 4.69565236,-0.75 C3.83120663,-0.75 3.13043491,-0.0492282762 3.13043491,0.815217454 C3.13043491,1.67966318 -0.828057725,2.38043491 4.69565236,2.38043491 Z" mask="url(#mask-13)"/></g></g></g></svg>